<mxfile host="65bd71144e">
    <diagram id="R2RRpO5pG8_qlRIXTBHp" name="APP SERVICES">
        <mxGraphModel dx="1194" dy="804" grid="0" gridSize="10" guides="1" tooltips="1" connect="1" arrows="1" fold="1" page="1" pageScale="1" pageWidth="1000" pageHeight="2000" background="none" math="0" shadow="0">
            <root>
                <mxCell id="0"/>
                <mxCell id="1" parent="0"/>
                <mxCell id="5" style="edgeStyle=none;html=1;entryX=0;entryY=0.5;entryDx=0;entryDy=0;exitX=0.5;exitY=1;exitDx=0;exitDy=0;" parent="1" source="2" target="3" edge="1">
                    <mxGeometry relative="1" as="geometry">
                        <Array as="points">
                            <mxPoint x="182" y="293"/>
                        </Array>
                    </mxGeometry>
                </mxCell>
                <mxCell id="7" style="edgeStyle=none;html=1;entryX=0;entryY=0.5;entryDx=0;entryDy=0;exitX=0.5;exitY=1;exitDx=0;exitDy=0;" parent="1" source="2" target="6" edge="1">
                    <mxGeometry relative="1" as="geometry">
                        <Array as="points">
                            <mxPoint x="182" y="448"/>
                        </Array>
                    </mxGeometry>
                </mxCell>
                <mxCell id="9" style="edgeStyle=none;html=1;exitX=0.5;exitY=1;exitDx=0;exitDy=0;entryX=0;entryY=0.5;entryDx=0;entryDy=0;" parent="1" source="2" target="8" edge="1">
                    <mxGeometry relative="1" as="geometry">
                        <mxPoint x="269" y="492" as="targetPoint"/>
                        <Array as="points">
                            <mxPoint x="185" y="606"/>
                        </Array>
                    </mxGeometry>
                </mxCell>
                <mxCell id="11" style="edgeStyle=none;html=1;entryX=0;entryY=0.5;entryDx=0;entryDy=0;fontColor=#33FF99;exitX=0.5;exitY=1;exitDx=0;exitDy=0;" parent="1" source="2" target="10" edge="1">
                    <mxGeometry relative="1" as="geometry">
                        <Array as="points">
                            <mxPoint x="187" y="769"/>
                        </Array>
                    </mxGeometry>
                </mxCell>
                <mxCell id="13" style="edgeStyle=none;html=1;entryX=0;entryY=0.5;entryDx=0;entryDy=0;fontColor=#33FF99;exitX=0.5;exitY=1;exitDx=0;exitDy=0;" parent="1" source="2" target="12" edge="1">
                    <mxGeometry relative="1" as="geometry">
                        <Array as="points">
                            <mxPoint x="190" y="930"/>
                        </Array>
                    </mxGeometry>
                </mxCell>
                <mxCell id="15" style="edgeStyle=none;html=1;entryX=0;entryY=0.5;entryDx=0;entryDy=0;exitX=0.5;exitY=1;exitDx=0;exitDy=0;" parent="1" source="2" target="14" edge="1">
                    <mxGeometry relative="1" as="geometry">
                        <Array as="points">
                            <mxPoint x="193" y="1090"/>
                        </Array>
                    </mxGeometry>
                </mxCell>
                <mxCell id="18" style="edgeStyle=none;html=1;entryX=0;entryY=0.5;entryDx=0;entryDy=0;" parent="1" source="2" target="16" edge="1">
                    <mxGeometry relative="1" as="geometry">
                        <mxPoint x="114" y="807" as="targetPoint"/>
                        <Array as="points">
                            <mxPoint x="196" y="1250"/>
                        </Array>
                    </mxGeometry>
                </mxCell>
                <mxCell id="21" style="edgeStyle=none;html=1;fontColor=#FFFFFF;entryX=0;entryY=0.5;entryDx=0;entryDy=0;" parent="1" source="2" target="19" edge="1">
                    <mxGeometry relative="1" as="geometry">
                        <mxPoint x="100" y="1093" as="targetPoint"/>
                        <Array as="points">
                            <mxPoint x="198" y="1410"/>
                        </Array>
                    </mxGeometry>
                </mxCell>
                <mxCell id="23" style="edgeStyle=none;html=1;fontColor=#FFFFFF;entryX=0;entryY=0.5;entryDx=0;entryDy=0;" parent="1" source="2" target="22" edge="1">
                    <mxGeometry relative="1" as="geometry">
                        <mxPoint x="116" y="1048" as="targetPoint"/>
                        <Array as="points">
                            <mxPoint x="201" y="1570"/>
                        </Array>
                    </mxGeometry>
                </mxCell>
                <mxCell id="25" style="edgeStyle=none;html=1;entryX=0;entryY=0.5;entryDx=0;entryDy=0;fontColor=#FFFFFF;" parent="1" source="2" target="24" edge="1">
                    <mxGeometry relative="1" as="geometry">
                        <Array as="points">
                            <mxPoint x="203" y="1732"/>
                        </Array>
                    </mxGeometry>
                </mxCell>
                <mxCell id="2" value="&lt;b&gt;&lt;font color=&quot;#33ff99&quot;&gt;APP SERVICE&lt;/font&gt;&lt;/b&gt;&lt;br&gt;Collects all child services and starts app" style="rounded=0;whiteSpace=wrap;html=1;" parent="1" vertex="1">
                    <mxGeometry x="68" y="28" width="232" height="109" as="geometry"/>
                </mxCell>
                <mxCell id="3" value="&lt;font color=&quot;#33ff99&quot;&gt;&lt;b&gt;APP STATE&lt;/b&gt;&lt;/font&gt;&lt;br&gt;&lt;ul&gt;&lt;li style=&quot;text-align: left;&quot;&gt;Keep state of app&lt;/li&gt;&lt;/ul&gt;" style="rounded=0;whiteSpace=wrap;html=1;shadow=0;glass=0;" parent="1" vertex="1">
                    <mxGeometry x="315" y="231" width="230" height="123" as="geometry"/>
                </mxCell>
                <mxCell id="6" value="&lt;b&gt;&lt;font color=&quot;#33ff99&quot;&gt;APP APPERANCE&lt;/font&gt;&lt;/b&gt;&lt;br&gt;&lt;ul&gt;&lt;li style=&quot;text-align: left;&quot;&gt;Keep state of app apperance&lt;/li&gt;&lt;li style=&quot;text-align: left;&quot;&gt;Changes App Apperance within HTML and CSS&lt;/li&gt;&lt;/ul&gt;" style="rounded=0;whiteSpace=wrap;html=1;" parent="1" vertex="1">
                    <mxGeometry x="318" y="387" width="295" height="122" as="geometry"/>
                </mxCell>
                <mxCell id="30" style="edgeStyle=none;html=1;fontColor=#FFFFFF;exitX=1;exitY=0.5;exitDx=0;exitDy=0;" parent="1" source="8" edge="1">
                    <mxGeometry relative="1" as="geometry">
                        <mxPoint x="672" y="1732" as="targetPoint"/>
                        <Array as="points">
                            <mxPoint x="816" y="606"/>
                            <mxPoint x="816" y="1732"/>
                        </Array>
                    </mxGeometry>
                </mxCell>
                <mxCell id="8" value="&lt;font color=&quot;#33ff99&quot;&gt;&lt;b&gt;APP UPDATE&lt;/b&gt;&lt;/font&gt;&lt;br&gt;&lt;ul&gt;&lt;li style=&quot;text-align: left;&quot;&gt;Update data of user if needed after app update&lt;/li&gt;&lt;li style=&quot;text-align: left;&quot;&gt;Converts Backup's of older app to actual if needed&lt;/li&gt;&lt;/ul&gt;" style="rounded=0;whiteSpace=wrap;html=1;align=center;" parent="1" vertex="1">
                    <mxGeometry x="318" y="542" width="296" height="127" as="geometry"/>
                </mxCell>
                <mxCell id="29" style="edgeStyle=none;html=1;exitX=1;exitY=0.5;exitDx=0;exitDy=0;fontColor=#FFFFFF;entryX=1;entryY=0.25;entryDx=0;entryDy=0;" parent="1" source="10" target="22" edge="1">
                    <mxGeometry relative="1" as="geometry">
                        <mxPoint x="669" y="1556" as="targetPoint"/>
                        <Array as="points">
                            <mxPoint x="715" y="769"/>
                            <mxPoint x="715" y="1543"/>
                        </Array>
                    </mxGeometry>
                </mxCell>
                <mxCell id="10" value="&lt;font color=&quot;#33ff99&quot;&gt;&lt;b&gt;APP SCHEDULE&lt;/b&gt;&lt;/font&gt;&lt;br&gt;&lt;ul&gt;&lt;li style=&quot;text-align: left;&quot;&gt;Manages in app transactions scheduler. &lt;/li&gt;&lt;li style=&quot;text-align: left;&quot;&gt;Add Transactions acording to schedule&lt;/li&gt;&lt;/ul&gt;" style="rounded=0;whiteSpace=wrap;html=1;" parent="1" vertex="1">
                    <mxGeometry x="318" y="708" width="340" height="122" as="geometry"/>
                </mxCell>
                <mxCell id="12" value="&lt;font color=&quot;#33ff99&quot;&gt;&lt;b&gt;APP BACKUP&lt;/b&gt;&lt;/font&gt;&lt;br&gt;&lt;ul&gt;&lt;li&gt;Creates application backup date to send or copy&lt;/li&gt;&lt;li style=&quot;text-align: left;&quot;&gt;Implements data from backup&lt;/li&gt;&lt;/ul&gt;" style="rounded=0;whiteSpace=wrap;html=1;" parent="1" vertex="1">
                    <mxGeometry x="318" y="869" width="349" height="121" as="geometry"/>
                </mxCell>
                <mxCell id="14" value="&lt;font color=&quot;#33ff99&quot;&gt;&lt;b&gt;APP VALIDATOR&lt;/b&gt;&lt;/font&gt;&lt;br&gt;&lt;ul&gt;&lt;li style=&quot;text-align: left;&quot;&gt;Validates Data&lt;/li&gt;&lt;/ul&gt;" style="rounded=0;whiteSpace=wrap;html=1;" parent="1" vertex="1">
                    <mxGeometry x="318" y="1029" width="349" height="121" as="geometry"/>
                </mxCell>
                <mxCell id="28" style="edgeStyle=none;html=1;fontColor=#FFFFFF;exitX=1;exitY=0.5;exitDx=0;exitDy=0;" parent="1" source="16" edge="1">
                    <mxGeometry relative="1" as="geometry">
                        <mxPoint x="674" y="1732" as="targetPoint"/>
                        <Array as="points">
                            <mxPoint x="775" y="1250"/>
                            <mxPoint x="775" y="1732"/>
                        </Array>
                    </mxGeometry>
                </mxCell>
                <mxCell id="16" value="&lt;font style=&quot;font-weight: bold;&quot; color=&quot;#33ff99&quot;&gt;PROFILE_SERVICE&lt;/font&gt;&lt;font style=&quot;&quot; color=&quot;#ffffff&quot;&gt;&lt;br&gt;&lt;div style=&quot;&quot;&gt;&lt;ul&gt;&lt;li style=&quot;text-align: left;&quot;&gt;Manages user profile&lt;/li&gt;&lt;/ul&gt;&lt;/div&gt;&lt;/font&gt;" style="rounded=0;whiteSpace=wrap;html=1;glass=0;shadow=0;" parent="1" vertex="1">
                    <mxGeometry x="318" y="1189" width="349" height="121" as="geometry"/>
                </mxCell>
                <mxCell id="27" style="edgeStyle=none;html=1;fontColor=#FFFFFF;exitX=1;exitY=0.5;exitDx=0;exitDy=0;entryX=1;entryY=0.5;entryDx=0;entryDy=0;" parent="1" source="19" target="24" edge="1">
                    <mxGeometry relative="1" as="geometry">
                        <mxPoint x="852.230769230769" y="1481.0769230769229" as="targetPoint"/>
                        <Array as="points">
                            <mxPoint x="777" y="1410"/>
                            <mxPoint x="777" y="1730"/>
                        </Array>
                    </mxGeometry>
                </mxCell>
                <mxCell id="19" value="&lt;font style=&quot;font-weight: bold;&quot; color=&quot;#33ff99&quot;&gt;USER_ACCOUNT_SERVICE&lt;/font&gt;&lt;font style=&quot;&quot; color=&quot;#ffffff&quot;&gt;&lt;br&gt;&lt;div style=&quot;&quot;&gt;&lt;ul&gt;&lt;li style=&quot;text-align: left;&quot;&gt;Manages user accounts&lt;/li&gt;&lt;/ul&gt;&lt;/div&gt;&lt;/font&gt;" style="rounded=0;whiteSpace=wrap;html=1;glass=0;shadow=0;" parent="1" vertex="1">
                    <mxGeometry x="318" y="1349" width="349" height="121" as="geometry"/>
                </mxCell>
                <mxCell id="26" style="edgeStyle=none;html=1;entryX=1;entryY=0.5;entryDx=0;entryDy=0;fontColor=#FFFFFF;exitX=1;exitY=0.5;exitDx=0;exitDy=0;" parent="1" source="22" target="24" edge="1">
                    <mxGeometry relative="1" as="geometry">
                        <Array as="points">
                            <mxPoint x="758" y="1570"/>
                            <mxPoint x="758" y="1730"/>
                        </Array>
                    </mxGeometry>
                </mxCell>
                <mxCell id="22" value="&lt;font style=&quot;font-weight: bold;&quot; color=&quot;#33ff99&quot;&gt;TRANSACTION_SERVICE&lt;/font&gt;&lt;font style=&quot;&quot; color=&quot;#ffffff&quot;&gt;&lt;br&gt;&lt;div style=&quot;&quot;&gt;&lt;ul&gt;&lt;li style=&quot;text-align: left;&quot;&gt;Manages in app transactions&lt;/li&gt;&lt;/ul&gt;&lt;/div&gt;&lt;/font&gt;" style="rounded=0;whiteSpace=wrap;html=1;glass=0;shadow=0;" parent="1" vertex="1">
                    <mxGeometry x="318" y="1509" width="349" height="121" as="geometry"/>
                </mxCell>
                <mxCell id="24" value="&lt;font style=&quot;font-weight: bold;&quot; color=&quot;#33ff99&quot;&gt;STORAGE_SERVICE&lt;/font&gt;&lt;font style=&quot;&quot; color=&quot;#ffffff&quot;&gt;&lt;br&gt;&lt;div style=&quot;&quot;&gt;&lt;ul&gt;&lt;li style=&quot;&quot;&gt;Comunicates with IndexedDB to store/retreive data&lt;/li&gt;&lt;/ul&gt;&lt;/div&gt;&lt;/font&gt;" style="rounded=0;whiteSpace=wrap;html=1;glass=0;shadow=0;align=center;" parent="1" vertex="1">
                    <mxGeometry x="318" y="1669" width="349" height="121" as="geometry"/>
                </mxCell>
            </root>
        </mxGraphModel>
    </diagram>
    <diagram id="59a2PRcinGY4OQETN3Uo" name="ALGORITHM - USER PROFILE SETUP">
        <mxGraphModel dx="1837" dy="1237" grid="0" gridSize="10" guides="1" tooltips="1" connect="1" arrows="1" fold="1" page="1" pageScale="1" pageWidth="1500" pageHeight="800" background="none" math="0" shadow="0">
            <root>
                <mxCell id="0"/>
                <mxCell id="1" parent="0"/>
                <mxCell id="B4HcWX0_UmRQ0bLkEdw8-1" value="User Profile Setup - ALGORITHM" style="text;html=1;strokeColor=none;fillColor=none;align=center;verticalAlign=middle;whiteSpace=wrap;rounded=0;shadow=0;glass=0;sketch=0;fontColor=#FFFFFF;fontSize=24;" parent="1" vertex="1">
                    <mxGeometry x="555.25" y="70" width="365" height="50" as="geometry"/>
                </mxCell>
                <mxCell id="B4HcWX0_UmRQ0bLkEdw8-5" style="edgeStyle=none;html=1;entryX=0.5;entryY=0;entryDx=0;entryDy=0;fontSize=13;fontColor=#FFFFFF;" parent="1" source="B4HcWX0_UmRQ0bLkEdw8-3" target="B4HcWX0_UmRQ0bLkEdw8-4" edge="1">
                    <mxGeometry relative="1" as="geometry">
                        <Array as="points">
                            <mxPoint x="719.25" y="238"/>
                            <mxPoint x="451.25" y="235"/>
                        </Array>
                    </mxGeometry>
                </mxCell>
                <mxCell id="B4HcWX0_UmRQ0bLkEdw8-16" style="edgeStyle=none;html=1;fontSize=13;fontColor=#FFFFFF;exitX=0.5;exitY=1;exitDx=0;exitDy=0;" parent="1" source="B4HcWX0_UmRQ0bLkEdw8-3" target="B4HcWX0_UmRQ0bLkEdw8-15" edge="1">
                    <mxGeometry relative="1" as="geometry">
                        <Array as="points">
                            <mxPoint x="719" y="238"/>
                            <mxPoint x="957" y="238"/>
                        </Array>
                    </mxGeometry>
                </mxCell>
                <mxCell id="B4HcWX0_UmRQ0bLkEdw8-3" value="&lt;font style=&quot;font-size: 13px;&quot;&gt;PAGE ENTER&lt;/font&gt;" style="ellipse;whiteSpace=wrap;html=1;rounded=0;shadow=0;glass=0;sketch=0;fontSize=24;fontColor=#FFFFFF;" parent="1" vertex="1">
                    <mxGeometry x="649.25" y="138" width="140" height="51" as="geometry"/>
                </mxCell>
                <mxCell id="B4HcWX0_UmRQ0bLkEdw8-7" value="" style="edgeStyle=none;html=1;fontSize=13;fontColor=#FFFFFF;entryX=0.5;entryY=0;entryDx=0;entryDy=0;" parent="1" source="B4HcWX0_UmRQ0bLkEdw8-4" target="B4HcWX0_UmRQ0bLkEdw8-6" edge="1">
                    <mxGeometry relative="1" as="geometry"/>
                </mxCell>
                <mxCell id="B4HcWX0_UmRQ0bLkEdw8-4" value="User gives profile image" style="shape=parallelogram;perimeter=parallelogramPerimeter;whiteSpace=wrap;html=1;fixedSize=1;rounded=0;shadow=0;glass=0;sketch=0;fontSize=13;fontColor=#FFFFFF;" parent="1" vertex="1">
                    <mxGeometry x="351.25" y="263" width="199" height="47" as="geometry"/>
                </mxCell>
                <mxCell id="B4HcWX0_UmRQ0bLkEdw8-14" value="" style="edgeStyle=none;html=1;fontSize=13;fontColor=#FFFFFF;" parent="1" source="B4HcWX0_UmRQ0bLkEdw8-6" target="B4HcWX0_UmRQ0bLkEdw8-13" edge="1">
                    <mxGeometry relative="1" as="geometry"/>
                </mxCell>
                <mxCell id="B4HcWX0_UmRQ0bLkEdw8-6" value="handleImageInput()" style="shape=hexagon;perimeter=hexagonPerimeter2;whiteSpace=wrap;html=1;fixedSize=1;rounded=0;shadow=0;glass=0;sketch=0;fontSize=13;fontColor=#FFFFFF;size=41.583333333333314;" parent="1" vertex="1">
                    <mxGeometry x="346" y="348" width="209.5" height="42" as="geometry"/>
                </mxCell>
                <mxCell id="B4HcWX0_UmRQ0bLkEdw8-8" value="profile" style="swimlane;whiteSpace=wrap;html=1;rounded=0;shadow=0;glass=0;sketch=0;fontSize=13;fontColor=#FFFFFF;startSize=32;" parent="1" vertex="1">
                    <mxGeometry x="79" y="57" width="156" height="165" as="geometry">
                        <mxRectangle x="376" y="33" width="75" height="28" as="alternateBounds"/>
                    </mxGeometry>
                </mxCell>
                <mxCell id="B4HcWX0_UmRQ0bLkEdw8-9" value="id: string" style="text;html=1;align=center;verticalAlign=middle;resizable=0;points=[];autosize=1;strokeColor=none;fillColor=none;fontSize=13;fontColor=#FFFFFF;" parent="B4HcWX0_UmRQ0bLkEdw8-8" vertex="1">
                    <mxGeometry x="44.5" y="39.5" width="67" height="28" as="geometry"/>
                </mxCell>
                <mxCell id="B4HcWX0_UmRQ0bLkEdw8-10" value="name: string" style="text;html=1;align=center;verticalAlign=middle;resizable=0;points=[];autosize=1;strokeColor=none;fillColor=none;fontSize=13;fontColor=#FFFFFF;" parent="B4HcWX0_UmRQ0bLkEdw8-8" vertex="1">
                    <mxGeometry x="33.5" y="67.5" width="90" height="28" as="geometry"/>
                </mxCell>
                <mxCell id="B4HcWX0_UmRQ0bLkEdw8-11" value="surnname: string" style="text;html=1;align=center;verticalAlign=middle;resizable=0;points=[];autosize=1;strokeColor=none;fillColor=none;fontSize=13;fontColor=#FFFFFF;" parent="B4HcWX0_UmRQ0bLkEdw8-8" vertex="1">
                    <mxGeometry x="21" y="95.5" width="115" height="28" as="geometry"/>
                </mxCell>
                <mxCell id="B4HcWX0_UmRQ0bLkEdw8-12" value="image: string" style="text;html=1;align=center;verticalAlign=middle;resizable=0;points=[];autosize=1;strokeColor=none;fillColor=none;fontSize=13;fontColor=#FFFFFF;" parent="B4HcWX0_UmRQ0bLkEdw8-8" vertex="1">
                    <mxGeometry x="33" y="123.5" width="92" height="28" as="geometry"/>
                </mxCell>
                <mxCell id="B4HcWX0_UmRQ0bLkEdw8-13" value="profile.image" style="shape=dataStorage;whiteSpace=wrap;html=1;fixedSize=1;rounded=0;shadow=0;glass=0;sketch=0;fontSize=13;fontColor=#FFFFFF;size=14.105263157894683;" parent="1" vertex="1">
                    <mxGeometry x="152" y="343.5" width="125" height="51" as="geometry"/>
                </mxCell>
                <mxCell id="B4HcWX0_UmRQ0bLkEdw8-18" value="" style="edgeStyle=none;html=1;fontSize=13;fontColor=#FFFFFF;" parent="1" source="B4HcWX0_UmRQ0bLkEdw8-15" target="B4HcWX0_UmRQ0bLkEdw8-17" edge="1">
                    <mxGeometry relative="1" as="geometry"/>
                </mxCell>
                <mxCell id="B4HcWX0_UmRQ0bLkEdw8-15" value="User gives profile name and surnname" style="shape=parallelogram;perimeter=parallelogramPerimeter;whiteSpace=wrap;html=1;fixedSize=1;rounded=0;shadow=0;glass=0;sketch=0;fontSize=13;fontColor=#FFFFFF;" parent="1" vertex="1">
                    <mxGeometry x="860" y="263" width="199" height="47" as="geometry"/>
                </mxCell>
                <mxCell id="B4HcWX0_UmRQ0bLkEdw8-20" value="" style="edgeStyle=none;html=1;fontSize=13;fontColor=#FFFFFF;" parent="1" source="B4HcWX0_UmRQ0bLkEdw8-17" target="B4HcWX0_UmRQ0bLkEdw8-19" edge="1">
                    <mxGeometry relative="1" as="geometry"/>
                </mxCell>
                <mxCell id="B4HcWX0_UmRQ0bLkEdw8-17" value="handleTextInput()" style="shape=hexagon;perimeter=hexagonPerimeter2;whiteSpace=wrap;html=1;fixedSize=1;rounded=0;shadow=0;glass=0;sketch=0;fontSize=13;fontColor=#FFFFFF;size=41.583333333333314;" parent="1" vertex="1">
                    <mxGeometry x="854.75" y="352.5" width="209.5" height="42" as="geometry"/>
                </mxCell>
                <mxCell id="B4HcWX0_UmRQ0bLkEdw8-19" value="profile.name&lt;br&gt;proflle.surname" style="shape=dataStorage;whiteSpace=wrap;html=1;fixedSize=1;rounded=0;shadow=0;glass=0;sketch=0;fontSize=13;fontColor=#FFFFFF;flipH=1;" parent="1" vertex="1">
                    <mxGeometry x="1138" y="333.5" width="144" height="80.5" as="geometry"/>
                </mxCell>
                <mxCell id="B4HcWX0_UmRQ0bLkEdw8-34" style="edgeStyle=none;html=1;entryX=0.5;entryY=0;entryDx=0;entryDy=0;fontSize=13;fontColor=#FFFFFF;startArrow=none;startFill=0;endArrow=classic;endFill=1;" parent="1" source="B4HcWX0_UmRQ0bLkEdw8-22" target="B4HcWX0_UmRQ0bLkEdw8-32" edge="1">
                    <mxGeometry relative="1" as="geometry"/>
                </mxCell>
                <mxCell id="B4HcWX0_UmRQ0bLkEdw8-22" value="nav_bar_right_button_clicked$" style="shape=process;whiteSpace=wrap;html=1;backgroundOutline=1;rounded=0;shadow=0;glass=0;sketch=0;fontSize=13;fontColor=#FFFFFF;" parent="1" vertex="1">
                    <mxGeometry x="599.25" y="424" width="240" height="80" as="geometry"/>
                </mxCell>
                <mxCell id="B4HcWX0_UmRQ0bLkEdw8-25" value="" style="endArrow=classic;html=1;dashed=1;fontSize=13;fontColor=#FFFFFF;exitX=0.5;exitY=1;exitDx=0;exitDy=0;entryX=0;entryY=0.5;entryDx=0;entryDy=0;" parent="1" source="B4HcWX0_UmRQ0bLkEdw8-6" target="B4HcWX0_UmRQ0bLkEdw8-22" edge="1">
                    <mxGeometry relative="1" as="geometry">
                        <mxPoint x="683" y="524" as="sourcePoint"/>
                        <mxPoint x="783" y="524" as="targetPoint"/>
                        <Array as="points">
                            <mxPoint x="451" y="464"/>
                        </Array>
                    </mxGeometry>
                </mxCell>
                <mxCell id="B4HcWX0_UmRQ0bLkEdw8-27" value="" style="endArrow=none;html=1;dashed=1;fontSize=13;fontColor=#FFFFFF;startArrow=classic;startFill=1;endFill=0;entryX=0.5;entryY=1;entryDx=0;entryDy=0;exitX=1;exitY=0.5;exitDx=0;exitDy=0;" parent="1" source="B4HcWX0_UmRQ0bLkEdw8-22" target="B4HcWX0_UmRQ0bLkEdw8-17" edge="1">
                    <mxGeometry relative="1" as="geometry">
                        <mxPoint x="883" y="484" as="sourcePoint"/>
                        <mxPoint x="983" y="484" as="targetPoint"/>
                        <Array as="points">
                            <mxPoint x="960" y="464"/>
                        </Array>
                    </mxGeometry>
                </mxCell>
                <mxCell id="B4HcWX0_UmRQ0bLkEdw8-36" value="" style="edgeStyle=none;html=1;fontSize=13;fontColor=#FFFFFF;startArrow=none;startFill=0;endArrow=classic;endFill=1;" parent="1" source="B4HcWX0_UmRQ0bLkEdw8-32" edge="1">
                    <mxGeometry relative="1" as="geometry">
                        <mxPoint x="719.2529628898055" y="624.00197525987" as="targetPoint"/>
                    </mxGeometry>
                </mxCell>
                <mxCell id="B4HcWX0_UmRQ0bLkEdw8-32" value="saveProfile()" style="shape=hexagon;perimeter=hexagonPerimeter2;whiteSpace=wrap;html=1;fixedSize=1;rounded=0;shadow=0;glass=0;sketch=0;fontSize=13;fontColor=#FFFFFF;" parent="1" vertex="1">
                    <mxGeometry x="623.94" y="544" width="190.63" height="50" as="geometry"/>
                </mxCell>
                <mxCell id="B4HcWX0_UmRQ0bLkEdw8-38" value="" style="edgeStyle=none;html=1;fontSize=13;fontColor=#FFFFFF;startArrow=none;startFill=0;endArrow=classic;endFill=1;strokeColor=#FF3333;" parent="1" target="B4HcWX0_UmRQ0bLkEdw8-37" edge="1">
                    <mxGeometry relative="1" as="geometry">
                        <mxPoint x="599.25" y="704" as="sourcePoint"/>
                    </mxGeometry>
                </mxCell>
                <mxCell id="B4HcWX0_UmRQ0bLkEdw8-43" style="edgeStyle=none;html=1;strokeColor=#FFFFFF;fontSize=13;fontColor=#FFFFFF;startArrow=none;startFill=0;endArrow=classic;endFill=1;" parent="1" edge="1">
                    <mxGeometry relative="1" as="geometry">
                        <mxPoint x="993" y="704.0000000000002" as="targetPoint"/>
                        <mxPoint x="839.25" y="704" as="sourcePoint"/>
                    </mxGeometry>
                </mxCell>
                <mxCell id="B4HcWX0_UmRQ0bLkEdw8-35" value="PROFILE_SERVICE.save()" style="rhombus;whiteSpace=wrap;html=1;rounded=0;shadow=0;glass=0;sketch=0;fontSize=13;fontColor=#FFFFFF;" parent="1" vertex="1">
                    <mxGeometry x="599.25" y="624" width="240" height="160" as="geometry"/>
                </mxCell>
                <mxCell id="B4HcWX0_UmRQ0bLkEdw8-39" style="edgeStyle=none;html=1;fontSize=13;fontColor=#FFFFFF;startArrow=none;startFill=0;endArrow=classic;endFill=1;fillColor=#d80073;strokeColor=#FF3333;" parent="1" source="B4HcWX0_UmRQ0bLkEdw8-37" edge="1">
                    <mxGeometry relative="1" as="geometry">
                        <mxPoint x="723" y="214" as="targetPoint"/>
                        <Array as="points">
                            <mxPoint x="293" y="584"/>
                            <mxPoint x="103" y="584"/>
                            <mxPoint x="103" y="264"/>
                            <mxPoint x="303" y="264"/>
                            <mxPoint x="303" y="184"/>
                            <mxPoint x="583" y="184"/>
                            <mxPoint x="583" y="214"/>
                        </Array>
                    </mxGeometry>
                </mxCell>
                <mxCell id="B4HcWX0_UmRQ0bLkEdw8-37" value="APP_STATE.errorHappend()" style="shape=process;whiteSpace=wrap;html=1;backgroundOutline=1;fontSize=13;fontColor=#FFFFFF;rounded=0;shadow=0;glass=0;sketch=0;fillColor=#FF3333;" parent="1" vertex="1">
                    <mxGeometry x="173" y="674" width="240" height="60" as="geometry"/>
                </mxCell>
                <mxCell id="B4HcWX0_UmRQ0bLkEdw8-40" value="catch" style="text;html=1;strokeColor=none;fillColor=none;align=center;verticalAlign=middle;whiteSpace=wrap;rounded=0;shadow=0;glass=0;sketch=0;fontSize=13;fontColor=#FF3333;fontStyle=1" parent="1" vertex="1">
                    <mxGeometry x="523" y="674" width="60" height="30" as="geometry"/>
                </mxCell>
                <mxCell id="B4HcWX0_UmRQ0bLkEdw8-41" value="then" style="text;html=1;strokeColor=none;fillColor=none;align=center;verticalAlign=middle;whiteSpace=wrap;rounded=0;shadow=0;glass=0;sketch=0;fontSize=13;fontColor=#FFFFFF;fontStyle=1" parent="1" vertex="1">
                    <mxGeometry x="843" y="674" width="60" height="30" as="geometry"/>
                </mxCell>
                <mxCell id="KTMuS1M-fm1mCQHHkStS-2" value="" style="edgeStyle=none;html=1;strokeColor=#FFFFFF;fontSize=13;fontColor=#FFFFFF;startArrow=none;startFill=0;endArrow=classic;endFill=1;" parent="1" source="B4HcWX0_UmRQ0bLkEdw8-44" target="KTMuS1M-fm1mCQHHkStS-1" edge="1">
                    <mxGeometry relative="1" as="geometry"/>
                </mxCell>
                <mxCell id="B4HcWX0_UmRQ0bLkEdw8-44" value="APP.navigate(&quot;home&quot;)" style="shape=process;whiteSpace=wrap;html=1;backgroundOutline=1;rounded=0;shadow=0;glass=0;sketch=0;fontSize=13;fontColor=#FFFFFF;" parent="1" vertex="1">
                    <mxGeometry x="993" y="664" width="240" height="80" as="geometry"/>
                </mxCell>
                <mxCell id="KTMuS1M-fm1mCQHHkStS-1" value="&lt;font style=&quot;font-size: 13px;&quot;&gt;END&lt;/font&gt;" style="ellipse;whiteSpace=wrap;html=1;rounded=0;shadow=0;glass=0;sketch=0;fontSize=24;fontColor=#FFFFFF;" parent="1" vertex="1">
                    <mxGeometry x="1282" y="678.5" width="140" height="51" as="geometry"/>
                </mxCell>
            </root>
        </mxGraphModel>
    </diagram>
</mxfile>